%FSTAX23Y23*%
%MOIN*%
%SFA1B1*%

%IPPOS*%
%ADD19C,0.027560*%
%LNldo_regulator-1*%
%LPD*%
G36*
X0372Y0248D02*
X02657D01*
Y02913*
X0372*
Y0248*
G37*
%LNldo_regulator-2*%
%LPC*%
G36*
X03524Y02727D02*
Y02709D01*
X03542*
X03539Y02717*
X03532Y02724*
X03524Y02727*
G37*
G36*
X03514D02*
X03505Y02724D01*
X03498Y02717*
X03495Y02709*
X03514*
Y02727*
G37*
G36*
X03105Y027D02*
Y02682D01*
X03124*
X0312Y0269*
X03113Y02697*
X03105Y027*
G37*
G36*
X03095D02*
X03086Y02697D01*
X0308Y0269*
X03076Y02682*
X03095*
Y027*
G37*
G36*
X03542Y02699D02*
X03524D01*
Y0268*
X03532Y02684*
X03539Y0269*
X03542Y02699*
G37*
G36*
X03514D02*
X03495D01*
X03498Y0269*
X03505Y02684*
X03514Y0268*
Y02699*
G37*
G36*
X0299Y02676D02*
Y02657D01*
X03008*
X03005Y02666*
X02998Y02672*
X0299Y02676*
G37*
G36*
X0298D02*
X02971Y02672D01*
X02964Y02666*
X02961Y02657*
X0298*
Y02676*
G37*
G36*
X03124Y02672D02*
X03105D01*
Y02653*
X03113Y02657*
X0312Y02663*
X03124Y02672*
G37*
G36*
X03095D02*
X03076D01*
X0308Y02663*
X03086Y02657*
X03095Y02653*
Y02672*
G37*
G36*
X03008Y02647D02*
X0299D01*
Y02628*
X02998Y02632*
X03005Y02639*
X03008Y02647*
G37*
G36*
X0298D02*
X02961D01*
X02964Y02639*
X02971Y02632*
X0298Y02628*
Y02647*
G37*
G36*
X03056Y02612D02*
Y02593D01*
X03074*
X03071Y02602*
X03064Y02608*
X03056Y02612*
G37*
G36*
X03046D02*
X03037Y02608D01*
X03031Y02602*
X03027Y02593*
X03046*
Y02612*
G37*
G36*
X03331Y02602D02*
Y02583D01*
X0335*
X03346Y02592*
X0334Y02598*
X03331Y02602*
G37*
G36*
X03321D02*
X03313Y02598D01*
X03306Y02592*
X03303Y02583*
X03321*
Y02602*
G37*
G36*
X03074Y02583D02*
X03056D01*
Y02564*
X03064Y02568*
X03071Y02575*
X03074Y02583*
G37*
G36*
X03046D02*
X03027D01*
X03031Y02575*
X03037Y02568*
X03046Y02564*
Y02583*
G37*
G36*
X0335Y02573D02*
X03331D01*
Y02555*
X0334Y02558*
X03346Y02565*
X0335Y02573*
G37*
G36*
X03321D02*
X03303D01*
X03306Y02565*
X03313Y02558*
X03321Y02555*
Y02573*
G37*
%LNldo_regulator-3*%
%LPD*%
G54D19*
X031Y02677D03*
X03519Y02704D03*
X03051Y02588D03*
X02985Y02652D03*
X03326Y02578D03*
M02*