%FSTAX23Y23*%
%MOIN*%
%SFA1B1*%

%IPPOS*%
%ADD10C,0.009840*%
%ADD11C,0.007870*%
%ADD12C,0.010000*%
%LNldo_regulator-1*%
%LPD*%
G36*
X03184Y02586D02*
X03185Y02586D01*
X03186Y02586*
X03187Y02586*
X03187Y02585*
X03187*
X03187Y02585*
X03187*
X03188Y02585*
X03188Y02585*
X03189Y02585*
X03189Y02585*
X0319Y02584*
X0319Y02584*
X03191Y02584*
X03191*
X03191Y02584*
X03191Y02583*
X03192Y02583*
X03192Y02582*
X03193Y02582*
X03193Y02581*
X03193Y0258*
X03194Y02579*
Y02579*
X03194Y02579*
X03194Y02579*
X03194Y02579*
X03194Y02579*
X03194Y02578*
X03194Y02578*
X03194Y02578*
X03194Y02577*
X03195Y02577*
X03195Y02576*
X03195Y02575*
X03195Y02573*
Y02573*
Y02573*
Y02573*
Y02573*
X03195Y02573*
Y02572*
X03195Y02572*
X03195Y02571*
X03195Y0257*
X03194Y02569*
X03194Y02568*
Y02568*
X03194Y02568*
X03194Y02568*
X03194Y02568*
X03194Y02567*
X03194Y02567*
X03194Y02566*
X03193Y02566*
X03193Y02565*
X03192Y02565*
X03192Y02564*
X03192Y02564*
X03192Y02564*
X03192Y02564*
X03191Y02563*
X03191Y02563*
X03191Y02563*
X0319Y02562*
X0319Y02562*
X0319Y02562*
X0319Y02562*
X03189Y02562*
X03189Y02562*
X03188Y02561*
X03188Y02561*
X03187Y02561*
X03187*
X03187Y02561*
X03187Y02561*
X03186Y02561*
X03185Y02561*
X03185Y02561*
X03184Y02561*
X03183Y02561*
X03174*
Y02586*
X03184*
X03184Y02586*
G37*
G36*
X03158Y02564D02*
X0317D01*
Y02561*
X03154*
Y02586*
X03158*
Y02564*
G37*
G36*
X03211Y02586D02*
X03211D01*
X03212Y02586*
X03212Y02586*
X03213Y02586*
X03214Y02586*
X03215Y02585*
X03216Y02585*
X03216Y02585*
X03217Y02585*
X03217*
X03217Y02584*
X03217Y02584*
X03217Y02584*
X03218Y02584*
X03218Y02584*
X03218Y02583*
X03219Y02583*
X0322Y02582*
X0322Y02581*
X03221Y0258*
Y0258*
X03221Y0258*
X03221Y0258*
X03221Y02579*
X03221Y02579*
X03222Y02579*
X03222Y02578*
X03222Y02578*
X03222Y02577*
X03222Y02577*
X03222Y02576*
X03223Y02575*
X03223Y02573*
Y02573*
Y02573*
Y02573*
X03223Y02572*
Y02572*
X03223Y02572*
X03222Y02571*
X03222Y02571*
X03222Y0257*
X03222Y02569*
X03222Y02567*
X03221Y02566*
Y02566*
X03221Y02566*
X03221Y02566*
X03221Y02566*
X03221Y02566*
X0322Y02565*
X0322Y02565*
X03219Y02564*
X03219Y02563*
X03218Y02562*
X03217Y02562*
X03217*
X03217Y02562*
X03216Y02562*
X03216Y02561*
X03216Y02561*
X03216Y02561*
X03215Y02561*
X03215Y02561*
X03214Y02561*
X03213Y0256*
X03212Y0256*
X03211Y0256*
X0321*
X0321Y0256*
X0321*
X03209Y0256*
X03209Y0256*
X03208Y0256*
X03207Y02561*
X03206Y02561*
X03205Y02561*
X03205Y02562*
X03204Y02562*
X03204Y02562*
X03204Y02562*
X03204Y02562*
X03204Y02562*
X03203Y02562*
X03203Y02563*
X03203Y02563*
X03202Y02564*
X03201Y02565*
X03201Y02565*
X032Y02567*
Y02567*
X032Y02567*
X032Y02567*
X032Y02567*
X032Y02567*
X03199Y02568*
X03199Y02568*
X03199Y02568*
X03199Y02569*
X03199Y02569*
X03199Y0257*
X03199Y02572*
X03198Y02573*
Y02573*
Y02573*
X03199Y02573*
Y02574*
X03199Y02574*
X03199Y02575*
X03199Y02576*
X03199Y02576*
X03199Y02577*
X03199Y02578*
X032Y02579*
X032Y0258*
X032Y0258*
X03201Y02581*
X03201Y02582*
X03202Y02583*
X03202Y02583*
X03202Y02583*
X03202Y02583*
X03202Y02583*
X03203Y02583*
X03203Y02584*
X03204Y02584*
X03204Y02584*
X03205Y02585*
X03205Y02585*
X03206Y02585*
X03207Y02586*
X03208Y02586*
X03209Y02586*
X0321Y02586*
X03211Y02586*
X03211*
X03211Y02586*
G37*
G36*
X03142Y02555D02*
X03142D01*
X03143Y02555*
X03144Y02555*
X03144Y02555*
X03145Y02554*
X03146Y02554*
X03146*
X03146Y02554*
X03146Y02554*
X03146Y02554*
X03147Y02554*
X03147Y02554*
X03148Y02553*
X03149Y02553*
X03149Y02552*
X0315Y02552*
X0315Y02552*
X0315Y02551*
X0315Y02551*
X0315Y02551*
X03151Y0255*
X03151Y02549*
X03151Y02549*
X03152Y02548*
X03148Y02547*
Y02547*
X03148Y02547*
X03148Y02547*
X03148Y02547*
X03148Y02548*
X03148Y02548*
X03148Y02549*
X03147Y02549*
X03147Y0255*
X03147Y0255*
X03147Y0255*
X03147Y0255*
X03146Y0255*
X03146Y02551*
X03146Y02551*
X03145Y02551*
X03145Y02552*
X03145Y02552*
X03144Y02552*
X03144Y02552*
X03144Y02552*
X03143Y02552*
X03143Y02552*
X03142Y02552*
X03141Y02552*
X03141*
X0314Y02552*
X0314Y02552*
X03139Y02552*
X03139Y02552*
X03138Y02552*
X03137Y02552*
X03137Y02551*
X03137Y02551*
X03137Y02551*
X03136Y02551*
X03136Y02551*
X03135Y0255*
X03135Y0255*
X03135Y0255*
X03135Y0255*
X03134Y02549*
X03134Y02549*
X03134Y02549*
X03134Y02549*
X03133Y02548*
X03133Y02548*
X03133Y02547*
Y02547*
X03133Y02547*
X03133Y02547*
X03133Y02547*
X03133Y02547*
X03133Y02546*
X03133Y02546*
X03132Y02545*
X03132Y02544*
X03132Y02543*
X03132Y02542*
Y02542*
Y02542*
Y02542*
X03132Y02542*
Y02541*
X03132Y02541*
X03132Y02541*
X03132Y0254*
X03132Y02539*
X03133Y02538*
X03133Y02537*
X03133Y02536*
Y02536*
X03133Y02536*
X03133Y02536*
X03133Y02536*
X03134Y02536*
X03134Y02535*
X03134Y02535*
X03135Y02534*
X03136Y02534*
X03137Y02533*
X03137*
X03137Y02533*
X03137Y02533*
X03137Y02533*
X03137Y02533*
X03137Y02533*
X03138Y02533*
X03139Y02532*
X03139Y02532*
X0314Y02532*
X03141Y02532*
X03142*
X03142Y02532*
X03143Y02532*
X03143Y02532*
X03144Y02532*
X03145Y02533*
X03145Y02533*
X03146*
X03146Y02533*
X03146Y02533*
X03146Y02533*
X03146Y02533*
X03147Y02533*
X03147Y02534*
X03148Y02534*
X03148Y02534*
X03149Y02535*
Y02539*
X03141*
Y02542*
X03152*
Y02533*
X03152Y02533*
X03152Y02533*
X03152Y02533*
X03151Y02533*
X03151Y02532*
X03151Y02532*
X0315Y02532*
X0315Y02531*
X03149Y02531*
X03148Y0253*
X03147Y0253*
X03147*
X03147Y0253*
X03147Y0253*
X03146Y0253*
X03146Y0253*
X03146Y0253*
X03145Y0253*
X03145Y0253*
X03144Y02529*
X03143Y02529*
X03142Y02529*
X03141Y02529*
X03141*
X03141Y02529*
X0314*
X0314Y02529*
X0314Y02529*
X03139Y02529*
X03138Y02529*
X03137Y0253*
X03136Y0253*
X03135Y02531*
X03135Y02531*
X03135Y02531*
X03134Y02531*
X03134Y02531*
X03134Y02531*
X03134Y02531*
X03133Y02532*
X03132Y02532*
X03131Y02533*
X03131Y02534*
X0313Y02535*
Y02535*
X0313Y02535*
X0313Y02535*
X0313Y02536*
X0313Y02536*
X0313Y02536*
X03129Y02537*
X03129Y02537*
X03129Y02538*
X03129Y02538*
X03129Y02539*
X03129Y02541*
X03129Y02542*
Y02542*
Y02542*
Y02542*
X03129Y02543*
Y02543*
X03129Y02543*
X03129Y02544*
X03129Y02544*
X03129Y02545*
X03129Y02546*
X0313Y02548*
X0313Y02549*
Y02549*
X0313Y02549*
X0313Y02549*
X0313Y02549*
X03131Y0255*
X03131Y0255*
X03131Y02551*
X03132Y02551*
X03133Y02552*
X03134Y02553*
X03134Y02553*
X03135Y02554*
X03135*
X03135Y02554*
X03135Y02554*
X03135Y02554*
X03135Y02554*
X03136Y02554*
X03136Y02554*
X03136Y02554*
X03137Y02554*
X03137Y02555*
X03139Y02555*
X0314Y02555*
X03141Y02555*
X03142*
X03142Y02555*
G37*
G36*
X03177Y0254D02*
Y0254D01*
Y0254*
Y0254*
Y02539*
X03177Y02539*
Y02539*
X03177Y02538*
X03177Y02538*
X03176Y02537*
X03176Y02536*
X03176Y02535*
X03176Y02534*
Y02534*
X03176Y02534*
X03176Y02534*
X03176Y02534*
X03175Y02533*
X03175Y02533*
X03175Y02532*
X03174Y02532*
X03173Y02531*
X03173Y0253*
X03173*
X03173Y0253*
X03172Y0253*
X03172Y0253*
X03172Y0253*
X03172Y0253*
X03171Y0253*
X03171Y0253*
X03171Y0253*
X0317Y02529*
X0317Y02529*
X03169Y02529*
X03168Y02529*
X03167Y02529*
X03166*
X03166Y02529*
X03166*
X03166Y02529*
X03165Y02529*
X03165Y02529*
X03164Y02529*
X03163Y0253*
X03162Y0253*
X03161Y0253*
X03161*
X03161Y0253*
X03161Y0253*
X03161Y0253*
X0316Y02531*
X0316Y02531*
X03159Y02532*
X03159Y02532*
X03158Y02533*
X03158Y02534*
Y02534*
X03158Y02534*
X03158Y02534*
X03158Y02534*
X03158Y02534*
X03157Y02535*
X03157Y02535*
X03157Y02535*
X03157Y02536*
X03157Y02536*
X03157Y02537*
X03157Y02537*
X03157Y02538*
X03157Y02539*
X03157Y02539*
Y0254*
Y02555*
X0316*
Y0254*
Y0254*
Y0254*
Y0254*
Y0254*
Y02539*
X0316Y02539*
X0316Y02538*
X0316Y02537*
X0316Y02537*
X03161Y02536*
X03161Y02536*
X03161Y02535*
X03161Y02535*
X03161Y02535*
X03161Y02535*
X03161Y02534*
X03162Y02534*
X03162Y02534*
X03162Y02533*
X03163Y02533*
X03163Y02533*
X03163Y02533*
X03163Y02533*
X03164Y02532*
X03164Y02532*
X03165Y02532*
X03166Y02532*
X03166Y02532*
X03167*
X03167Y02532*
X03167*
X03168Y02532*
X03169Y02532*
X03169Y02532*
X0317Y02533*
X03171Y02533*
X03171Y02533*
X03172Y02534*
Y02534*
X03172Y02534*
X03172Y02534*
X03172Y02534*
X03172Y02534*
X03172Y02534*
X03172Y02535*
X03173Y02535*
X03173Y02536*
X03173Y02536*
X03173Y02536*
X03173Y02537*
X03173Y02538*
X03173Y02538*
X03173Y02539*
Y0254*
Y02555*
X03177*
Y0254*
G37*
G36*
X03286Y02555D02*
X03287D01*
X03287Y02555*
X03288Y02555*
X03289Y02554*
X0329Y02554*
X0329Y02554*
X03291Y02554*
X03291*
X03291Y02554*
X03291Y02554*
X03291Y02554*
X03292Y02553*
X03292Y02553*
X03292Y02553*
X03293Y02552*
X03293Y02552*
X03293Y02551*
X03293Y02551*
X03294Y02551*
X03294Y0255*
X03294Y0255*
X03294Y02549*
X03294Y02549*
X03294Y02548*
Y02548*
Y02548*
Y02548*
X03294Y02547*
Y02547*
X03294Y02547*
X03294Y02546*
X03294Y02545*
X03294Y02545*
X03293Y02544*
X03293Y02544*
X03293Y02543*
X03293Y02543*
X03292Y02543*
X03292Y02543*
X03292Y02543*
X03292Y02543*
X03292Y02542*
X03291Y02542*
X03291Y02542*
X03291Y02542*
X0329Y02542*
X0329Y02542*
X03289Y02541*
X03289Y02541*
X03288Y02541*
X03287Y02541*
X03287Y02541*
X03288Y02541*
X03288Y02541*
X03288Y02541*
X03289Y0254*
X03289Y0254*
X03289Y0254*
X03289Y0254*
X0329Y02539*
X0329Y02539*
X0329Y02539*
X03291Y02538*
X03291Y02538*
X03292Y02537*
X03292Y02536*
X03296Y02529*
X03292*
X03289Y02535*
Y02535*
X03289Y02535*
X03289Y02535*
X03289Y02535*
X03288Y02535*
X03288Y02536*
X03288Y02537*
X03287Y02537*
X03287Y02538*
X03286Y02538*
X03286Y02538*
X03286Y02538*
X03286Y02539*
X03286Y02539*
X03285Y02539*
X03285Y0254*
X03285Y0254*
X03285Y0254*
X03285Y0254*
X03285Y0254*
X03284Y0254*
X03284Y0254*
X03283Y02541*
X03283*
X03283Y02541*
X03283*
X03283Y02541*
X03283Y02541*
X03282*
X03282Y02541*
X03278*
Y02529*
X03274*
Y02555*
X03286*
X03286Y02555*
G37*
G36*
X03243Y02552D02*
X03235D01*
Y02529*
X03232*
Y02552*
X03223*
Y02555*
X03243*
Y02552*
G37*
G36*
X03223Y02529D02*
X03219D01*
X03216Y02537*
X03205*
X03203Y02529*
X03199*
X03209Y02555*
X03212*
X03223Y02529*
G37*
G36*
X03185Y02532D02*
X03198D01*
Y02529*
X03182*
Y02555*
X03185*
Y02532*
G37*
G36*
X03124Y02552D02*
X03109D01*
Y02544*
X03123*
Y02541*
X03109*
Y02532*
X03125*
Y02529*
X03106*
Y02555*
X03124*
Y02552*
G37*
G36*
X03093Y02555D02*
X03093D01*
X03094Y02555*
X03094Y02555*
X03095Y02554*
X03096Y02554*
X03096Y02554*
X03097Y02554*
X03097*
X03097Y02554*
X03097Y02554*
X03097Y02554*
X03098Y02553*
X03098Y02553*
X03099Y02553*
X03099Y02552*
X031Y02552*
X031Y02551*
X031Y02551*
X031Y02551*
X031Y0255*
X031Y0255*
X03101Y02549*
X03101Y02549*
X03101Y02548*
Y02548*
Y02548*
Y02548*
X03101Y02547*
Y02547*
X03101Y02547*
X031Y02546*
X031Y02545*
X031Y02545*
X031Y02544*
X03099Y02544*
X03099Y02543*
X03099Y02543*
X03099Y02543*
X03099Y02543*
X03098Y02543*
X03098Y02543*
X03098Y02542*
X03098Y02542*
X03097Y02542*
X03097Y02542*
X03096Y02542*
X03096Y02542*
X03095Y02541*
X03095Y02541*
X03094Y02541*
X03094Y02541*
X03094Y02541*
X03094Y02541*
X03094Y02541*
X03094Y02541*
X03095Y0254*
X03095Y0254*
X03096Y0254*
X03096Y0254*
X03096Y02539*
X03096Y02539*
X03096Y02539*
X03097Y02538*
X03097Y02538*
X03098Y02537*
X03098Y02536*
X03103Y02529*
X03099*
X03095Y02535*
Y02535*
X03095Y02535*
X03095Y02535*
X03095Y02535*
X03095Y02535*
X03094Y02536*
X03094Y02537*
X03094Y02537*
X03093Y02538*
X03093Y02538*
X03093Y02538*
X03093Y02538*
X03092Y02539*
X03092Y02539*
X03092Y02539*
X03091Y0254*
X03091Y0254*
X03091Y0254*
X03091Y0254*
X03091Y0254*
X03091Y0254*
X0309Y0254*
X0309Y02541*
X0309*
X03089Y02541*
X03089*
X03089Y02541*
X03089Y02541*
X03089*
X03088Y02541*
X03084*
Y02529*
X03081*
Y02555*
X03092*
X03093Y02555*
G37*
G36*
X03258Y02555D02*
X03259D01*
X03259Y02555*
X03259Y02555*
X0326Y02555*
X03261Y02555*
X03262Y02554*
X03263Y02554*
X03264Y02554*
X03264Y02553*
X03264*
X03264Y02553*
X03264Y02553*
X03265Y02553*
X03265Y02553*
X03265Y02553*
X03266Y02552*
X03266Y02552*
X03267Y02551*
X03268Y0255*
X03268Y02549*
Y02549*
X03268Y02549*
X03269Y02548*
X03269Y02548*
X03269Y02548*
X03269Y02548*
X03269Y02547*
X03269Y02547*
X03269Y02546*
X03269Y02546*
X0327Y02545*
X0327Y02543*
X0327Y02542*
Y02542*
Y02542*
Y02542*
X0327Y02541*
Y02541*
X0327Y02541*
X0327Y0254*
X0327Y0254*
X0327Y02539*
X03269Y02537*
X03269Y02536*
X03268Y02535*
Y02535*
X03268Y02535*
X03268Y02535*
X03268Y02535*
X03268Y02534*
X03268Y02534*
X03267Y02533*
X03267Y02533*
X03266Y02532*
X03265Y02531*
X03264Y02531*
X03264*
X03264Y0253*
X03264Y0253*
X03263Y0253*
X03263Y0253*
X03263Y0253*
X03263Y0253*
X03262Y0253*
X03261Y0253*
X0326Y02529*
X03259Y02529*
X03258Y02529*
X03257*
X03257Y02529*
X03257*
X03257Y02529*
X03256Y02529*
X03256Y02529*
X03255Y02529*
X03254Y0253*
X03253Y0253*
X03252Y0253*
X03251Y02531*
X03251Y02531*
X03251Y02531*
X03251Y02531*
X03251Y02531*
X03251Y02531*
X0325Y02531*
X0325Y02532*
X03249Y02533*
X03248Y02533*
X03248Y02534*
X03247Y02535*
Y02535*
X03247Y02536*
X03247Y02536*
X03247Y02536*
X03247Y02536*
X03247Y02537*
X03247Y02537*
X03247Y02537*
X03246Y02538*
X03246Y02538*
X03246Y02539*
X03246Y0254*
X03246Y02542*
Y02542*
Y02542*
X03246Y02542*
Y02543*
X03246Y02543*
X03246Y02544*
X03246Y02545*
X03246Y02545*
X03246Y02546*
X03247Y02547*
X03247Y02548*
X03247Y02549*
X03248Y02549*
X03248Y0255*
X03249Y02551*
X03249Y02552*
X03249Y02552*
X03249Y02552*
X03249Y02552*
X0325Y02552*
X0325Y02552*
X0325Y02553*
X03251Y02553*
X03251Y02553*
X03252Y02554*
X03253Y02554*
X03253Y02554*
X03254Y02555*
X03255Y02555*
X03256Y02555*
X03257Y02555*
X03258Y02555*
X03258*
X03258Y02555*
G37*
%LNldo_regulator-2*%
%LPC*%
G36*
X03183Y02583D02*
X03177D01*
Y02564*
X03183*
X03184Y02564*
X03184Y02564*
X03185Y02564*
X03185Y02564*
X03186Y02564*
X03187Y02564*
X03187Y02564*
X03187Y02564*
X03187Y02564*
X03187Y02564*
X03188Y02565*
X03188Y02565*
X03189Y02565*
X03189Y02565*
X03189Y02565*
X03189Y02566*
X03189Y02566*
X0319Y02566*
X0319Y02567*
X0319Y02567*
X0319Y02568*
X03191Y02568*
Y02569*
X03191Y02569*
X03191Y02569*
X03191Y02569*
X03191Y02569*
X03191Y02569*
X03191Y0257*
X03191Y02571*
X03191Y02571*
X03191Y02572*
X03191Y02573*
Y02573*
Y02574*
Y02574*
Y02574*
X03191Y02574*
X03191Y02575*
X03191Y02575*
X03191Y02576*
X03191Y02577*
X03191Y02578*
X03191Y02579*
X0319Y02579*
X0319Y02579*
Y02579*
X0319Y0258*
X0319Y0258*
X0319Y0258*
X0319Y0258*
X03189Y02581*
X03189Y02581*
X03188Y02582*
X03188Y02582*
X03187Y02582*
X03187Y02582*
X03187Y02582*
X03186Y02582*
X03186Y02583*
X03185Y02583*
X03185Y02583*
X03184Y02583*
X03183Y02583*
G37*
G36*
X03211Y02583D02*
X0321D01*
X0321Y02583*
X0321Y02583*
X03209Y02583*
X03209Y02583*
X03208Y02583*
X03208Y02583*
X03207Y02583*
X03207Y02582*
X03206Y02582*
X03205Y02582*
X03205Y02581*
X03204Y02581*
X03204Y02581*
X03204Y02581*
X03204Y02581*
X03204Y0258*
X03204Y0258*
X03204Y0258*
X03203Y02579*
X03203Y02579*
X03203Y02578*
X03203Y02578*
X03203Y02577*
X03202Y02576*
X03202Y02576*
X03202Y02575*
X03202Y02574*
X03202Y02573*
Y02573*
Y02573*
Y02572*
X03202Y02572*
X03202Y02572*
X03202Y02571*
X03202Y02571*
X03202Y0257*
X03203Y02569*
X03203Y02568*
X03203Y02568*
X03203Y02567*
X03204Y02567*
X03204Y02566*
X03204Y02566*
X03204Y02566*
X03204Y02565*
X03205Y02565*
X03205Y02565*
X03205Y02565*
X03205Y02565*
X03206Y02565*
X03206Y02564*
X03206Y02564*
X03207Y02564*
X03207Y02564*
X03208Y02563*
X03209Y02563*
X03209Y02563*
X0321Y02563*
X03211Y02563*
X03211*
X03211Y02563*
X03211Y02563*
X03212Y02563*
X03212Y02563*
X03213Y02563*
X03214Y02564*
X03214Y02564*
X03215Y02564*
X03215Y02564*
X03216Y02565*
X03216Y02565*
X03217Y02566*
X03217Y02566*
X03217Y02566*
X03217Y02566*
X03217Y02566*
X03217Y02566*
X03217Y02567*
X03218Y02567*
X03218Y02568*
X03218Y02568*
X03218Y02569*
X03219Y02569*
X03219Y0257*
X03219Y02571*
X03219Y02571*
X03219Y02572*
X03219Y02573*
Y02573*
Y02573*
Y02573*
Y02574*
X03219Y02574*
Y02574*
X03219Y02575*
X03219Y02576*
X03219Y02577*
X03218Y02578*
X03218Y02579*
Y02579*
X03218Y02579*
X03218Y02579*
X03218Y02579*
X03218Y02579*
X03217Y0258*
X03217Y0258*
X03216Y02581*
X03216Y02582*
X03215Y02582*
X03215*
X03215Y02582*
X03215Y02582*
X03215Y02582*
X03214Y02582*
X03214Y02583*
X03213Y02583*
X03212Y02583*
X03211Y02583*
X03211Y02583*
G37*
G36*
X03286Y02552D02*
X03278D01*
Y02544*
X03285*
X03286Y02544*
X03286Y02544*
X03287Y02544*
X03287Y02544*
X03288Y02544*
X03288Y02544*
X03288Y02544*
X03289Y02544*
X03289Y02544*
X03289Y02544*
X03289Y02545*
X0329Y02545*
X0329Y02545*
X0329Y02546*
X0329Y02546*
X0329Y02546*
X0329Y02546*
X03291Y02546*
X03291Y02547*
X03291Y02547*
X03291Y02547*
X03291Y02548*
Y02548*
Y02548*
Y02548*
X03291Y02548*
X03291Y02549*
X03291Y02549*
X0329Y0255*
X0329Y0255*
X0329Y02551*
X0329Y02551*
X03289Y02551*
X03289Y02551*
X03289Y02551*
X03288Y02552*
X03287Y02552*
X03287Y02552*
X03286Y02552*
G37*
G36*
X0321Y02552D02*
Y02552D01*
X0321Y02552*
Y02552*
X0321Y02552*
X0321Y02551*
X0321Y02551*
X0321Y02551*
X0321Y0255*
X0321Y02549*
X03209Y02548*
X03209Y02547*
X03206Y0254*
X03215*
X03212Y02547*
Y02547*
X03212Y02547*
X03212Y02547*
X03212Y02547*
X03212Y02548*
X03212Y02548*
X03212Y02549*
X03211Y02549*
X03211Y0255*
X03211Y02551*
X0321Y02552*
G37*
G36*
X03092Y02552D02*
X03084D01*
Y02544*
X03091*
X03092Y02544*
X03092Y02544*
X03093Y02544*
X03094Y02544*
X03094Y02544*
X03095Y02544*
X03095Y02544*
X03095Y02544*
X03095Y02544*
X03095Y02544*
X03096Y02545*
X03096Y02545*
X03096Y02545*
X03097Y02546*
X03097Y02546*
X03097Y02546*
X03097Y02546*
X03097Y02546*
X03097Y02547*
X03097Y02547*
X03097Y02547*
X03097Y02548*
Y02548*
Y02548*
Y02548*
X03097Y02548*
X03097Y02549*
X03097Y02549*
X03097Y0255*
X03096Y0255*
X03096Y02551*
X03096Y02551*
X03096Y02551*
X03095Y02551*
X03095Y02551*
X03094Y02552*
X03094Y02552*
X03093Y02552*
X03092Y02552*
G37*
G36*
X03258Y02552D02*
X03257D01*
X03257Y02552*
X03257Y02552*
X03257Y02552*
X03256Y02552*
X03256Y02552*
X03255Y02552*
X03254Y02551*
X03254Y02551*
X03253Y02551*
X03253Y02551*
X03252Y0255*
X03252Y0255*
X03252Y0255*
X03252Y0255*
X03252Y02549*
X03251Y02549*
X03251Y02549*
X03251Y02549*
X03251Y02548*
X0325Y02548*
X0325Y02547*
X0325Y02547*
X0325Y02546*
X0325Y02545*
X03249Y02545*
X03249Y02544*
X03249Y02543*
X03249Y02542*
Y02542*
Y02541*
Y02541*
X03249Y02541*
X03249Y02541*
X03249Y0254*
X03249Y0254*
X0325Y02539*
X0325Y02538*
X0325Y02537*
X0325Y02537*
X03251Y02536*
X03251Y02536*
X03251Y02535*
X03252Y02534*
X03252Y02534*
X03252Y02534*
X03252Y02534*
X03252Y02534*
X03252Y02534*
X03253Y02534*
X03253Y02533*
X03253Y02533*
X03254Y02533*
X03254Y02533*
X03255Y02532*
X03255Y02532*
X03256Y02532*
X03256Y02532*
X03257Y02532*
X03258Y02532*
X03258*
X03258Y02532*
X03259Y02532*
X03259Y02532*
X0326Y02532*
X0326Y02532*
X03261Y02533*
X03261Y02533*
X03262Y02533*
X03263Y02533*
X03263Y02534*
X03264Y02534*
X03264Y02534*
X03264Y02535*
X03264Y02535*
X03264Y02535*
X03264Y02535*
X03265Y02535*
X03265Y02536*
X03265Y02536*
X03265Y02536*
X03265Y02537*
X03266Y02537*
X03266Y02538*
X03266Y02539*
X03266Y0254*
X03266Y0254*
X03266Y02541*
X03266Y02542*
Y02542*
Y02542*
Y02542*
Y02543*
X03266Y02543*
Y02543*
X03266Y02544*
X03266Y02545*
X03266Y02546*
X03266Y02547*
X03265Y02547*
Y02547*
X03265Y02548*
X03265Y02548*
X03265Y02548*
X03265Y02548*
X03265Y02549*
X03264Y02549*
X03264Y0255*
X03263Y0255*
X03262Y02551*
X03262*
X03262Y02551*
X03262Y02551*
X03262Y02551*
X03262Y02551*
X03261Y02552*
X0326Y02552*
X0326Y02552*
X03259Y02552*
X03258Y02552*
G37*
%LNldo_regulator-3*%
%LPD*%
G54D10*
X02985Y02701D02*
D01*
X02985Y02702*
X02985Y02702*
X02985Y02702*
X02985Y02703*
X02984Y02703*
X02984Y02703*
X02984Y02704*
X02984Y02704*
X02984Y02704*
X02984Y02704*
X02983Y02705*
X02983Y02705*
X02983Y02705*
X02983Y02705*
X02982Y02706*
X02982Y02706*
X02982Y02706*
X02981Y02706*
X02981Y02706*
X02981Y02706*
X0298Y02706*
X0298Y02706*
X0298*
X02979Y02706*
X02979Y02706*
X02979Y02706*
X02978Y02706*
X02978Y02706*
X02978Y02706*
X02977Y02706*
X02977Y02705*
X02977Y02705*
X02977Y02705*
X02976Y02705*
X02976Y02704*
X02976Y02704*
X02976Y02704*
X02975Y02704*
X02975Y02703*
X02975Y02703*
X02975Y02703*
X02975Y02702*
X02975Y02702*
X02975Y02702*
X02975Y02701*
X02975Y02701*
X02975Y02701*
X02975Y027*
X02975Y027*
X02975Y027*
X02975Y02699*
X02975Y02699*
X02976Y02699*
X02976Y02698*
X02976Y02698*
X02976Y02698*
X02977Y02698*
X02977Y02697*
X02977Y02697*
X02977Y02697*
X02978Y02697*
X02978Y02697*
X02978Y02697*
X02979Y02696*
X02979Y02696*
X02979Y02696*
X0298Y02696*
X0298*
X0298Y02696*
X02981Y02696*
X02981Y02696*
X02981Y02697*
X02982Y02697*
X02982Y02697*
X02982Y02697*
X02983Y02697*
X02983Y02697*
X02983Y02698*
X02983Y02698*
X02984Y02698*
X02984Y02698*
X02984Y02699*
X02984Y02699*
X02984Y02699*
X02984Y027*
X02985Y027*
X02985Y027*
X02985Y02701*
X02985Y02701*
X02985Y02701*
X03402Y02652D02*
D01*
X03402Y02652*
X03402Y02653*
X03402Y02653*
X03402Y02653*
X03402Y02654*
X03402Y02654*
X03401Y02654*
X03401Y02655*
X03401Y02655*
X03401Y02655*
X03401Y02655*
X034Y02656*
X034Y02656*
X034Y02656*
X034Y02656*
X03399Y02656*
X03399Y02657*
X03399Y02657*
X03398Y02657*
X03398Y02657*
X03398Y02657*
X03397Y02657*
X03397*
X03397Y02657*
X03396Y02657*
X03396Y02657*
X03396Y02657*
X03395Y02657*
X03395Y02656*
X03395Y02656*
X03394Y02656*
X03394Y02656*
X03394Y02656*
X03394Y02655*
X03393Y02655*
X03393Y02655*
X03393Y02655*
X03393Y02654*
X03393Y02654*
X03393Y02654*
X03392Y02653*
X03392Y02653*
X03392Y02653*
X03392Y02652*
X03392Y02652*
X03392Y02652*
X03392Y02651*
X03392Y02651*
X03392Y02651*
X03393Y0265*
X03393Y0265*
X03393Y0265*
X03393Y02649*
X03393Y02649*
X03393Y02649*
X03394Y02649*
X03394Y02648*
X03394Y02648*
X03394Y02648*
X03395Y02648*
X03395Y02648*
X03395Y02647*
X03396Y02647*
X03396Y02647*
X03396Y02647*
X03397Y02647*
X03397Y02647*
X03397*
X03398Y02647*
X03398Y02647*
X03398Y02647*
X03399Y02647*
X03399Y02647*
X03399Y02648*
X034Y02648*
X034Y02648*
X034Y02648*
X034Y02648*
X03401Y02649*
X03401Y02649*
X03401Y02649*
X03401Y02649*
X03401Y0265*
X03402Y0265*
X03402Y0265*
X03402Y02651*
X03402Y02651*
X03402Y02651*
X03402Y02652*
X03402Y02652*
X03101Y02714D02*
D01*
X03101Y02714*
X03101Y02715*
X03101Y02715*
X03101Y02715*
X03101Y02716*
X031Y02716*
X031Y02716*
X031Y02717*
X031Y02717*
X031Y02717*
X03099Y02717*
X03099Y02718*
X03099Y02718*
X03099Y02718*
X03098Y02718*
X03098Y02718*
X03098Y02719*
X03097Y02719*
X03097Y02719*
X03097Y02719*
X03096Y02719*
X03096Y02719*
X03096*
X03095Y02719*
X03095Y02719*
X03095Y02719*
X03094Y02719*
X03094Y02719*
X03094Y02718*
X03094Y02718*
X03093Y02718*
X03093Y02718*
X03093Y02718*
X03092Y02717*
X03092Y02717*
X03092Y02717*
X03092Y02717*
X03092Y02716*
X03091Y02716*
X03091Y02716*
X03091Y02715*
X03091Y02715*
X03091Y02715*
X03091Y02714*
X03091Y02714*
X03091Y02714*
X03091Y02713*
X03091Y02713*
X03091Y02713*
X03091Y02712*
X03091Y02712*
X03092Y02712*
X03092Y02711*
X03092Y02711*
X03092Y02711*
X03092Y02711*
X03093Y0271*
X03093Y0271*
X03093Y0271*
X03094Y0271*
X03094Y0271*
X03094Y0271*
X03094Y02709*
X03095Y02709*
X03095Y02709*
X03095Y02709*
X03096Y02709*
X03096*
X03096Y02709*
X03097Y02709*
X03097Y02709*
X03097Y02709*
X03098Y0271*
X03098Y0271*
X03098Y0271*
X03099Y0271*
X03099Y0271*
X03099Y0271*
X03099Y02711*
X031Y02711*
X031Y02711*
X031Y02711*
X031Y02712*
X031Y02712*
X03101Y02712*
X03101Y02713*
X03101Y02713*
X03101Y02713*
X03101Y02714*
X03101Y02714*
G54D11*
X03022Y02674D02*
Y0268D01*
X03079Y02674D02*
Y0268D01*
X02866Y0279D02*
X02914D01*
X02754Y02614D02*
Y0274D01*
X02866Y02563D02*
X02914D01*
Y02625*
Y02728D02*
Y0279D01*
X03298Y02677D02*
Y02683D01*
X03355Y02677D02*
Y02683D01*
X03463Y02563D02*
X03511D01*
X03623Y02614D02*
Y0274D01*
X03463Y0279D02*
X03511D01*
X03463Y02728D02*
Y0279D01*
Y02563D02*
Y02625D01*
X03175Y02618D02*
Y02736D01*
Y02618D02*
X03202D01*
Y02736*
X03175D02*
X03202D01*
G54D12*
X03051Y02805D02*
X03041Y02815D01*
X03021*
X03011Y02805*
Y02765*
X03021Y02755*
X03041*
X03051Y02765*
X03071Y02755D02*
X03091D01*
X03081*
Y02815*
X03071Y02805*
X02972Y02589D02*
X02952D01*
X02962*
Y02539*
X02952Y02529*
X02942*
X02932Y02539*
X02992Y02529D02*
X03012D01*
X03002*
Y02589*
X02992Y02579*
X03316Y02815D02*
X03306Y02825D01*
X03286*
X03276Y02815*
Y02775*
X03286Y02765*
X03306*
X03316Y02775*
X03376Y02765D02*
X03336D01*
X03376Y02805*
Y02815*
X03366Y02825*
X03346*
X03336Y02815*
X03375Y02589D02*
X03355D01*
X03365*
Y02539*
X03355Y02529*
X03345*
X03335Y02539*
X03435Y02529D02*
X03395D01*
X03435Y02569*
Y02579*
X03425Y02589*
X03405*
X03395Y02579*
X03148Y02825D02*
Y02775D01*
X03158Y02765*
X03178*
X03188Y02775*
Y02825*
X03208Y02765D02*
X03228D01*
X03218*
Y02825*
X03208Y02815*
M02*