%FSTAX23Y23*%
%MOIN*%
%SFA1B1*%

%IPPOS*%
%ADD11C,0.007870*%
%LNldo_regulator-1*%
%LPD*%
G36*
X03065Y02677D02*
X03065D01*
X03065Y02677*
X03066Y02677*
X03066Y02676*
X03067Y02676*
X03068Y02676*
X0307Y02676*
X03071Y02675*
X03071*
X03071Y02675*
X03071Y02675*
X03071Y02675*
X03071Y02675*
X03072Y02675*
X03072Y02674*
X03073Y02673*
X03074Y02673*
X03075Y02672*
X03075Y02671*
Y02671*
X03075Y02671*
X03075Y02671*
X03075Y0267*
X03076Y0267*
X03076Y0267*
X03076Y02669*
X03076Y02669*
X03076Y02669*
X03076Y02668*
X03077Y02667*
X03077Y02666*
X03077Y02665*
Y02664*
X03077Y02664*
X03077Y02664*
X03077Y02663*
X03077Y02663*
X03077Y02663*
X03076Y02662*
X03076Y02661*
X03076Y0266*
X03075Y02659*
X03075Y02659*
X03075Y02658*
X03075Y02658*
X03075Y02658*
X03075Y02658*
X03074Y02658*
X03074Y02658*
X03074Y02658*
X03074Y02657*
X03073Y02657*
X03073Y02657*
X03073Y02656*
X03072Y02656*
X03072Y02656*
X03071Y02656*
X03071Y02655*
X03069Y02655*
X03069Y02658*
X03069*
X03069Y02658*
X03069Y02658*
X03069Y02658*
X03069Y02658*
X0307Y02659*
X0307Y02659*
X03071Y02659*
X03071Y0266*
X03072Y0266*
X03073Y02661*
X03073Y02661*
X03073Y02661*
X03073Y02661*
X03073Y02662*
X03074Y02662*
X03074Y02663*
X03074Y02664*
X03074Y02665*
Y02665*
X03074Y02665*
Y02666*
X03074Y02666*
X03074Y02667*
X03074Y02667*
X03073Y02668*
X03073Y02669*
X03072Y0267*
Y0267*
X03072Y0267*
X03072Y0267*
X03072Y0267*
X03071Y02671*
X03071Y02671*
X0307Y02672*
X0307Y02672*
X03069Y02672*
X03069*
X03069Y02672*
X03069Y02673*
X03068Y02673*
X03068Y02673*
X03068Y02673*
X03067Y02673*
X03067Y02673*
X03066Y02673*
X03065Y02673*
X03064Y02673*
X03064*
X03064*
X03064*
X03063*
X03063Y02673*
X03063*
X03062Y02673*
X03062Y02673*
X03061Y02673*
X0306Y02673*
X03059Y02673*
X03058Y02672*
X03058*
X03058Y02672*
X03058Y02672*
X03058Y02672*
X03057Y02672*
X03057Y02672*
X03056Y02671*
X03056Y02671*
X03055Y0267*
X03055Y02669*
Y02669*
X03055Y02669*
X03055Y02669*
X03054Y02669*
X03054Y02669*
X03054Y02668*
X03054Y02667*
X03054Y02667*
X03054Y02666*
X03054Y02665*
Y02665*
X03054Y02665*
Y02664*
X03054Y02664*
X03054Y02663*
X03054Y02663*
X03054Y02662*
X03055Y02661*
X03055Y0266*
X03055Y0266*
X03055Y0266*
X03055Y0266*
X03056Y0266*
X03056Y02659*
X03057Y02659*
X03058Y02658*
X03059Y02658*
X0306Y02658*
X03059Y02654*
X03059*
X03059Y02654*
X03059Y02655*
X03058Y02655*
X03058Y02655*
X03058Y02655*
X03057Y02655*
X03057Y02655*
X03056Y02656*
X03055Y02656*
X03054Y02657*
X03053Y02658*
X03053Y02658*
X03053Y02658*
X03053Y02658*
X03053Y02658*
X03052Y02659*
X03052Y02659*
X03052Y02659*
X03052Y0266*
X03052Y0266*
X03052Y02661*
X03051Y02661*
X03051Y02662*
X03051Y02662*
X03051Y02663*
X03051Y02664*
X03051Y02665*
Y02665*
X03051Y02666*
Y02666*
X03051Y02666*
X03051Y02667*
X03051Y02667*
X03051Y02668*
X03051Y02669*
X03052Y0267*
X03052Y02671*
X03052Y02671*
X03052Y02672*
X03052Y02672*
X03053Y02672*
X03053Y02672*
X03053Y02672*
X03054Y02673*
X03054Y02674*
X03055Y02674*
X03056Y02675*
X03057Y02675*
X03057*
X03057Y02675*
X03057Y02675*
X03058Y02676*
X03058Y02676*
X03058Y02676*
X03059Y02676*
X03059Y02676*
X0306Y02676*
X0306Y02676*
X03061Y02676*
X03063Y02677*
X03064Y02677*
X03064*
X03064*
X03064*
X03065Y02677*
G37*
G36*
X0307Y02649D02*
X0307Y02649D01*
X0307Y02649*
X0307Y02649*
X0307Y02649*
X03071Y02648*
X03071Y02648*
X03071Y02647*
X03072Y02646*
X03072Y02645*
X03073Y02645*
X03073Y02645*
X03073Y02645*
X03073Y02644*
X03074Y02644*
X03074Y02644*
X03075Y02643*
X03075Y02643*
X03076Y02642*
X03076Y02642*
Y0264*
X03051*
Y02643*
X03071*
X03071Y02643*
X03071Y02643*
X0307Y02643*
X0307Y02644*
X0307Y02644*
X0307Y02645*
X03069Y02645*
X03069Y02646*
Y02646*
X03069Y02646*
X03069Y02646*
X03068Y02647*
X03068Y02647*
X03068Y02648*
X03068Y02648*
X03067Y02649*
X03067Y02649*
X0307*
Y02649*
G37*
G36*
X02859Y02674D02*
X02859D01*
X02859*
X02859*
X02858Y02674*
X02858*
X02858Y02674*
X02857Y02673*
X02857Y02673*
X02856Y02673*
X02855Y02673*
X02855Y02673*
X02855Y02673*
X02855Y02673*
X02855Y02672*
X02855Y02672*
X02854Y02672*
X02854Y02672*
X02854Y02671*
X02854Y02671*
X02854Y0267*
Y0267*
X02854Y02669*
X02854Y02669*
X02854Y02669*
X02854Y02668*
X02854Y02668*
X02854Y02668*
X02854Y02668*
X02855Y02668*
X02855Y02667*
X02855Y02667*
X02855Y02667*
X02855Y02667*
X02856Y02667*
X02856Y02666*
X02856*
X02856Y02666*
X02856Y02666*
X02857Y02666*
X02857Y02666*
X02858Y02666*
X02858Y02666*
X02859*
X02877*
Y02663*
X02859*
X02859*
X02859*
X02859*
X02859*
X02859Y02663*
X02858*
X02858Y02663*
X02857Y02663*
X02856Y02663*
X02855Y02663*
X02854Y02664*
X02854Y02664*
X02854Y02664*
X02854Y02664*
X02853Y02664*
X02853Y02664*
X02853Y02665*
X02852Y02665*
X02852Y02666*
X02852Y02666*
X02852Y02666*
X02851Y02667*
X02851Y02667*
X02851Y02668*
X02851Y02668*
X02851Y02669*
X02851Y0267*
Y0267*
X02851Y0267*
X02851Y02671*
X02851Y02671*
X02851Y02672*
X02851Y02673*
X02852Y02673*
X02852Y02674*
X02852Y02674*
X02852Y02675*
X02853Y02675*
X02853*
X02853Y02675*
X02853Y02675*
X02853Y02675*
X02853Y02675*
X02854Y02676*
X02854Y02676*
X02854Y02676*
X02855Y02676*
X02855Y02676*
X02855Y02676*
X02856Y02676*
X02857Y02677*
X02857Y02677*
X02858Y02677*
X02858*
X02859Y02674*
G37*
G36*
X0287Y02656D02*
X0287Y02656D01*
X0287Y02656*
X02871Y02656*
X02871Y02656*
X02871Y02655*
X02871Y02655*
X02872Y02654*
X02872Y02653*
X02873Y02652*
X02873Y02652*
X02873Y02652*
X02873Y02652*
X02874Y02651*
X02874Y02651*
X02874Y02651*
X02875Y0265*
X02875Y0265*
X02876Y02649*
X02877Y02649*
Y02647*
X02851*
Y0265*
X02871*
X02871Y0265*
X02871Y0265*
X02871Y0265*
X0287Y02651*
X0287Y02651*
X0287Y02652*
X02869Y02652*
X02869Y02653*
Y02653*
X02869Y02653*
X02869Y02653*
X02869Y02654*
X02868Y02654*
X02868Y02655*
X02868Y02655*
X02868Y02656*
X02867Y02656*
X0287*
Y02656*
G37*
G36*
X0334Y0268D02*
X0334D01*
X03341Y0268*
X03341Y0268*
X03342Y02679*
X03343Y02679*
X03344Y02679*
X03345Y02679*
X03346Y02678*
X03346*
X03346Y02678*
X03347Y02678*
X03347Y02678*
X03347Y02678*
X03347Y02678*
X03348Y02677*
X03349Y02676*
X03349Y02676*
X0335Y02675*
X03351Y02674*
Y02674*
X03351Y02674*
X03351Y02674*
X03351Y02673*
X03351Y02673*
X03351Y02673*
X03351Y02672*
X03352Y02672*
X03352Y02672*
X03352Y02671*
X03352Y0267*
X03352Y02669*
X03352Y02668*
Y02667*
X03352Y02667*
X03352Y02667*
X03352Y02666*
X03352Y02666*
X03352Y02666*
X03352Y02665*
X03352Y02663*
X03351Y02663*
X03351Y02662*
X03351Y02662*
X0335Y02661*
X0335Y02661*
X0335Y02661*
X0335Y02661*
X0335Y02661*
X0335Y02661*
X0335Y02661*
X03349Y0266*
X03349Y0266*
X03349Y0266*
X03348Y02659*
X03348Y02659*
X03347Y02659*
X03347Y02659*
X03346Y02658*
X03345Y02658*
X03344Y02661*
X03344*
X03344Y02661*
X03344Y02661*
X03345Y02661*
X03345Y02661*
X03345Y02661*
X03346Y02662*
X03346Y02662*
X03347Y02663*
X03348Y02663*
X03348Y02664*
X03348Y02664*
X03348Y02664*
X03349Y02664*
X03349Y02665*
X03349Y02665*
X03349Y02666*
X03349Y02667*
X0335Y02668*
Y02668*
X03349Y02668*
Y02669*
X03349Y02669*
X03349Y0267*
X03349Y0267*
X03349Y02671*
X03349Y02672*
X03348Y02673*
Y02673*
X03348Y02673*
X03348Y02673*
X03348Y02673*
X03347Y02674*
X03347Y02674*
X03346Y02675*
X03345Y02675*
X03344Y02675*
X03344*
X03344Y02675*
X03344Y02675*
X03344Y02676*
X03344Y02676*
X03343Y02676*
X03343Y02676*
X03342Y02676*
X03341Y02676*
X0334Y02676*
X03339Y02676*
X03339*
X03339*
X03339*
X03339*
X03339Y02676*
X03338*
X03338Y02676*
X03338Y02676*
X03337Y02676*
X03336Y02676*
X03335Y02676*
X03334Y02675*
X03334*
X03334Y02675*
X03334Y02675*
X03333Y02675*
X03333Y02675*
X03333Y02675*
X03332Y02674*
X03331Y02674*
X03331Y02673*
X0333Y02672*
Y02672*
X0333Y02672*
X0333Y02672*
X0333Y02672*
X0333Y02672*
X0333Y02671*
X0333Y0267*
X03329Y0267*
X03329Y02669*
X03329Y02668*
Y02668*
X03329Y02668*
Y02667*
X03329Y02667*
X03329Y02666*
X0333Y02666*
X0333Y02665*
X0333Y02664*
X03331Y02663*
X03331Y02663*
X03331Y02663*
X03331Y02663*
X03331Y02663*
X03332Y02662*
X03333Y02662*
X03333Y02661*
X03334Y02661*
X03336Y02661*
X03335Y02657*
X03335*
X03334Y02657*
X03334Y02657*
X03334Y02658*
X03334Y02658*
X03333Y02658*
X03333Y02658*
X03332Y02658*
X03331Y02659*
X0333Y02659*
X03329Y0266*
X03329Y02661*
X03328Y02661*
X03328Y02661*
X03328Y02661*
X03328Y02661*
X03328Y02662*
X03328Y02662*
X03328Y02662*
X03328Y02663*
X03327Y02663*
X03327Y02663*
X03327Y02664*
X03327Y02665*
X03327Y02665*
X03326Y02666*
X03326Y02667*
X03326Y02668*
Y02668*
X03326Y02668*
Y02669*
X03326Y02669*
X03326Y0267*
X03326Y0267*
X03327Y02671*
X03327Y02672*
X03327Y02673*
X03328Y02674*
X03328Y02674*
X03328Y02674*
X03328Y02675*
X03328Y02675*
X03328Y02675*
X03329Y02675*
X03329Y02676*
X0333Y02677*
X03331Y02677*
X03332Y02678*
X03333Y02678*
X03333*
X03333Y02678*
X03333Y02678*
X03333Y02679*
X03334Y02679*
X03334Y02679*
X03334Y02679*
X03335Y02679*
X03335Y02679*
X03336Y02679*
X03337Y02679*
X03338Y0268*
X03339Y0268*
X0334*
X0334*
X0334*
X0334Y0268*
G37*
G36*
X03327Y02655D02*
X03328Y02655D01*
X03328Y02655*
X03328Y02655*
X03329Y02655*
X03329*
X03329Y02655*
X03329Y02654*
X03329Y02654*
X0333Y02654*
X0333Y02654*
X03331Y02653*
X03332Y02653*
X03332Y02653*
X03332*
X03332Y02652*
X03332Y02652*
X03333Y02652*
X03333Y02652*
X03334Y02651*
X03334Y0265*
X03335Y02649*
X03336Y02648*
X03336Y02648*
X03336Y02648*
X03336Y02648*
X03337Y02648*
X03337Y02647*
X03337Y02647*
X03338Y02646*
X03339Y02645*
X0334Y02644*
X0334Y02644*
X03341Y02644*
X03341Y02643*
X03341Y02643*
X03341*
X03341Y02643*
X03342Y02643*
X03342Y02643*
X03342Y02642*
X03343Y02642*
X03343Y02642*
X03344Y02642*
X03344Y02642*
X03345Y02641*
X03345*
X03345*
X03345Y02641*
X03346Y02642*
X03346Y02642*
X03347Y02642*
X03347Y02642*
X03348Y02642*
X03348Y02643*
X03348Y02643*
X03348Y02643*
X03349Y02643*
X03349Y02644*
X03349Y02644*
X03349Y02645*
X03349Y02645*
X03349Y02646*
Y02646*
X03349Y02647*
X03349Y02647*
X03349Y02648*
X03349Y02648*
X03349Y02649*
X03349Y02649*
X03348Y0265*
X03348Y0265*
X03348Y0265*
X03348Y0265*
X03347Y0265*
X03347Y02651*
X03346Y02651*
X03345Y02651*
X03344Y02651*
X03345Y02654*
X03345*
X03345*
X03345Y02654*
X03345Y02654*
X03346Y02654*
X03346Y02654*
X03347Y02654*
X03348Y02654*
X03349Y02653*
X03349Y02653*
X0335Y02652*
X0335Y02652*
X0335Y02652*
X0335Y02652*
X0335Y02652*
X0335Y02652*
X03351Y02651*
X03351Y02651*
X03351Y02651*
X03351Y0265*
X03351Y0265*
X03351Y0265*
X03352Y02649*
X03352Y02649*
X03352Y02647*
X03352Y02647*
X03352Y02646*
Y02646*
X03352Y02646*
X03352Y02645*
X03352Y02645*
X03352Y02645*
X03352Y02644*
X03352Y02643*
X03351Y02642*
X03351Y02642*
X03351Y02641*
X0335Y02641*
X0335Y0264*
X0335Y0264*
X0335Y0264*
X0335Y0264*
X0335Y0264*
X03349Y0264*
X03349Y0264*
X03349Y02639*
X03348Y02639*
X03347Y02639*
X03346Y02638*
X03346Y02638*
X03345Y02638*
X03345*
X03345*
X03344Y02638*
X03344Y02638*
X03344Y02638*
X03343Y02639*
X03343Y02639*
X03342Y02639*
X03342Y02639*
X03342Y02639*
X03341Y02639*
X03341Y02639*
X03341Y0264*
X0334Y0264*
X0334Y0264*
X03339Y02641*
X03339Y02641*
X03339Y02641*
X03338Y02642*
X03338Y02642*
X03338Y02642*
X03337Y02642*
X03337Y02643*
X03337Y02643*
X03336Y02644*
X03336Y02644*
X03335Y02645*
X03335Y02645*
X03334Y02646*
X03334Y02646*
X03334Y02646*
X03334Y02646*
X03334Y02646*
X03334Y02647*
X03333Y02647*
X03333Y02648*
X03332Y02648*
X03332Y02649*
X03331Y02649*
X03331Y02649*
X03331Y02649*
X03331Y02649*
X03331Y0265*
X03331Y0265*
X0333Y0265*
X0333Y02651*
Y02638*
X03327*
Y02655*
X03327*
X03327*
X03327*
X03327Y02655*
G37*
G36*
X03526Y02694D02*
X03526D01*
X03525*
X03525*
X03525Y02694*
X03525Y02694*
X03524Y02694*
X03524Y02695*
X03524Y02695*
X03524*
X03523Y02695*
X03523Y02695*
X03523Y02695*
X03522Y02695*
X03522Y02695*
X03521Y02696*
X03521Y02696*
X0352Y02697*
X0352*
X0352Y02697*
X0352Y02697*
X0352Y02697*
X03519Y02698*
X03519Y02698*
X03518Y02699*
X03517Y027*
X03516Y02701*
X03516Y02701*
X03516Y02701*
X03516Y02701*
X03516Y02701*
X03516Y02702*
X03515Y02702*
X03514Y02703*
X03514Y02704*
X03513Y02705*
X03512Y02705*
X03512Y02706*
X03511Y02706*
X03511Y02706*
X03511*
X03511Y02706*
X03511Y02707*
X03511Y02707*
X0351Y02707*
X0351Y02707*
X03509Y02707*
X03509Y02708*
X03508Y02708*
X03507Y02708*
X03507*
X03507*
X03507Y02708*
X03507Y02708*
X03506Y02708*
X03506Y02707*
X03505Y02707*
X03505Y02707*
X03504Y02706*
X03504Y02706*
X03504Y02706*
X03504Y02706*
X03504Y02706*
X03503Y02705*
X03503Y02704*
X03503Y02704*
X03503Y02703*
Y02703*
X03503Y02703*
X03503Y02702*
X03503Y02702*
X03503Y02701*
X03503Y02701*
X03504Y027*
X03504Y02699*
X03504Y02699*
X03504Y02699*
X03505Y02699*
X03505Y02699*
X03506Y02699*
X03506Y02698*
X03507Y02698*
X03508Y02698*
X03508Y02695*
X03508*
X03507*
X03507Y02695*
X03507Y02695*
X03507Y02695*
X03506Y02695*
X03506Y02695*
X03505Y02696*
X03504Y02696*
X03503Y02697*
X03503Y02697*
X03502Y02697*
X03502Y02697*
X03502Y02697*
X03502Y02698*
X03502Y02698*
X03502Y02698*
X03502Y02698*
X03501Y02699*
X03501Y02699*
X03501Y02699*
X03501Y027*
X03501Y027*
X03501Y02701*
X035Y02702*
X035Y02702*
X035Y02703*
Y02703*
X035Y02704*
X035Y02704*
X035Y02704*
X035Y02705*
X03501Y02705*
X03501Y02706*
X03501Y02707*
X03501Y02708*
X03502Y02708*
X03502Y02708*
X03502Y02709*
X03502Y02709*
X03502Y02709*
X03503Y02709*
X03503Y02709*
X03503Y02709*
X03503Y0271*
X03504Y0271*
X03504Y0271*
X03505Y02711*
X03506Y02711*
X03507Y02711*
X03507Y02711*
X03507*
X03508*
X03508Y02711*
X03508Y02711*
X03509Y02711*
X03509Y02711*
X0351Y02711*
X0351Y0271*
X0351Y0271*
X03511Y0271*
X03511Y0271*
X03511Y0271*
X03512Y0271*
X03512Y02709*
X03513Y02709*
X03513Y02708*
X03513Y02708*
X03514Y02708*
X03514Y02708*
X03514Y02707*
X03515Y02707*
X03515Y02707*
X03515Y02706*
X03516Y02706*
X03516Y02706*
X03516Y02705*
X03517Y02705*
X03517Y02704*
X03518Y02704*
X03518Y02703*
X03518Y02703*
X03518Y02703*
X03518Y02703*
X03519Y02703*
X03519Y02702*
X0352Y02701*
X0352Y02701*
X03521Y027*
X03521Y027*
X03521Y027*
X03521Y027*
X03521Y027*
X03521Y027*
X03522Y02699*
X03522Y02699*
X03523Y02699*
Y02711*
X03526*
Y02694*
G37*
G36*
X03518Y02691D02*
X03519D01*
X03519Y0269*
X0352Y0269*
X03521Y0269*
X03522Y0269*
X03523Y0269*
X03523Y0269*
X03523Y0269*
X03523Y02689*
X03524Y02689*
X03524Y02689*
X03524Y02688*
X03525Y02688*
X03525Y02687*
X03525Y02687*
X03525Y02687*
X03525Y02687*
X03526Y02686*
X03526Y02686*
X03526Y02685*
X03526Y02684*
X03526Y02683*
Y02683*
X03526Y02683*
X03526Y02683*
X03526Y02682*
X03526Y02682*
X03526Y02681*
X03525Y0268*
X03525Y02679*
X03525Y02679*
X03525Y02679*
X03524Y02678*
X03524*
X03524Y02678*
X03524Y02678*
X03524Y02678*
X03524Y02678*
X03523Y02678*
X03523Y02678*
X03523Y02677*
X03522Y02677*
X03522Y02677*
X03522Y02677*
X03521Y02677*
X0352Y02677*
X0352Y02677*
X03519Y02677*
X03519*
X03518Y0268*
X03518*
X03518*
X03518*
X03519Y0268*
X03519*
X03519Y0268*
X0352Y0268*
X0352Y0268*
X03521Y0268*
X03522Y0268*
X03522Y02681*
X03522Y02681*
X03522Y02681*
X03522Y02681*
X03522Y02681*
X03523Y02681*
X03523Y02682*
X03523Y02682*
X03523Y02683*
X03523Y02683*
Y02684*
X03523Y02684*
X03523Y02684*
X03523Y02685*
X03523Y02685*
X03523Y02685*
X03523Y02686*
X03523Y02686*
X03522Y02686*
X03522Y02686*
X03522Y02686*
X03522Y02686*
X03522Y02687*
X03521Y02687*
X03521Y02687*
X03521*
X03521Y02687*
X03521Y02687*
X0352Y02687*
X0352Y02687*
X03519Y02687*
X03519Y02687*
X03518*
X035*
Y02691*
X03518*
X03518*
X03518*
X03518*
X03518*
X03518Y02691*
G37*
G36*
X03208Y02688D02*
Y02688D01*
Y02688*
Y02687*
Y02687*
X03208Y02687*
Y02686*
X03208Y02686*
X03208Y02686*
X03208Y02685*
X03208Y02684*
X03208Y02683*
X03207Y02682*
Y02682*
X03207Y02682*
X03207Y02681*
X03207Y02681*
X03207Y02681*
X03207Y0268*
X03206Y0268*
X03206Y02679*
X03205Y02679*
X03204Y02678*
X03204*
X03204Y02678*
X03204Y02678*
X03204Y02678*
X03204Y02678*
X03203Y02678*
X03203Y02677*
X03203Y02677*
X03202Y02677*
X03202Y02677*
X03201Y02677*
X03201Y02677*
X032Y02677*
X03198Y02677*
X03198*
X03198Y02677*
X03198*
X03197Y02677*
X03197Y02677*
X03196Y02677*
X03195Y02677*
X03195Y02677*
X03194Y02677*
X03193Y02678*
X03193*
X03193Y02678*
X03192Y02678*
X03192Y02678*
X03192Y02678*
X03191Y02679*
X03191Y02679*
X0319Y0268*
X0319Y02681*
X03189Y02681*
Y02681*
X03189Y02682*
X03189Y02682*
X03189Y02682*
X03189Y02682*
X03189Y02682*
X03189Y02683*
X03189Y02683*
X03189Y02684*
X03189Y02684*
X03189Y02685*
X03189Y02685*
X03189Y02686*
X03189Y02686*
X03188Y02687*
Y02688*
Y02702*
X03192*
Y02688*
Y02688*
Y02688*
Y02687*
Y02687*
Y02687*
X03192Y02687*
X03192Y02686*
X03192Y02685*
X03192Y02684*
X03192Y02684*
X03192Y02683*
X03192Y02683*
X03192Y02683*
X03193Y02683*
X03193Y02682*
X03193Y02682*
X03193Y02682*
X03194Y02681*
X03194Y02681*
X03195Y0268*
X03195Y0268*
X03195Y0268*
X03195Y0268*
X03196Y0268*
X03196Y0268*
X03197Y0268*
X03197Y0268*
X03198Y0268*
X03198*
X03199Y0268*
X03199*
X03199Y0268*
X032Y0268*
X03201Y0268*
X03202Y0268*
X03203Y02681*
X03203Y02681*
X03203Y02681*
Y02681*
X03203Y02681*
X03204Y02682*
X03204Y02682*
X03204Y02682*
X03204Y02682*
X03204Y02682*
X03204Y02683*
X03204Y02683*
X03204Y02684*
X03205Y02684*
X03205Y02685*
X03205Y02685*
X03205Y02686*
X03205Y02687*
Y02688*
Y02702*
X03208*
Y02688*
G37*
G36*
X03224Y02677D02*
X03221D01*
Y02697*
X03221Y02697*
X03221Y02697*
X03221Y02696*
X0322Y02696*
X0322Y02696*
X03219Y02695*
X03219Y02695*
X03218Y02695*
X03218*
X03218Y02695*
X03218Y02694*
X03218Y02694*
X03217Y02694*
X03217Y02694*
X03216Y02694*
X03216Y02693*
X03215Y02693*
Y02696*
X03215*
X03215Y02696*
X03215Y02696*
X03215Y02696*
X03216Y02696*
X03216Y02697*
X03217Y02697*
X03217Y02697*
X03218Y02698*
X03219Y02698*
X03219Y02699*
X0322Y02699*
X0322Y02699*
X0322Y02699*
X0322Y027*
X03221Y027*
X03221Y02701*
X03221Y02701*
X03222Y02702*
X03222Y02702*
X03224*
Y02677*
G37*
G54D11*
X03009Y0274D02*
X03092D01*
X03009Y02614D02*
Y0274D01*
Y02614D02*
X03092D01*
Y0274*
X02741Y02798D02*
X02961D01*
X02741Y02556D02*
Y02798D01*
Y02556D02*
X02961D01*
Y02798*
X03285Y02743D02*
X03368D01*
X03285Y02617D02*
Y02743D01*
Y02617D02*
X03368D01*
Y02743*
X03416Y02556D02*
X03636D01*
Y02798*
X03416D02*
X03636D01*
X03416Y02556D02*
Y02798D01*
X03114Y02614D02*
Y0274D01*
Y02614D02*
X03263D01*
Y0274*
X03114D02*
X03263D01*
M02*